<mxfile host="app.diagrams.net" modified="2021-05-17T15:02:22.936Z" agent="5.0 (X11)" etag="34us7b5mWZB77PdGDs_B" version="14.6.13" type="github" pages="4">
  <diagram id="AhWVdmM_yHLK6CxtU968" name="Page-1">
    <mxGraphModel dx="1350" dy="804" grid="1" gridSize="10" guides="1" tooltips="1" connect="1" arrows="1" fold="1" page="1" pageScale="1" pageWidth="827" pageHeight="1169" math="0" shadow="0">
      <root>
        <mxCell id="0" />
        <mxCell id="1" parent="0" />
        <mxCell id="wJKJaym3Btc18to3Iy8r-10" style="edgeStyle=orthogonalEdgeStyle;rounded=0;orthogonalLoop=1;jettySize=auto;html=1;entryX=0.004;entryY=0.222;entryDx=0;entryDy=0;entryPerimeter=0;" parent="1" source="wJKJaym3Btc18to3Iy8r-1" target="wJKJaym3Btc18to3Iy8r-2" edge="1">
          <mxGeometry relative="1" as="geometry" />
        </mxCell>
        <mxCell id="wJKJaym3Btc18to3Iy8r-1" value="测距传感器" style="rounded=0;whiteSpace=wrap;html=1;" parent="1" vertex="1">
          <mxGeometry x="90" y="260" width="80" height="40" as="geometry" />
        </mxCell>
        <mxCell id="wJKJaym3Btc18to3Iy8r-11" style="edgeStyle=orthogonalEdgeStyle;rounded=0;orthogonalLoop=1;jettySize=auto;html=1;entryX=1;entryY=0.5;entryDx=0;entryDy=0;" parent="1" source="wJKJaym3Btc18to3Iy8r-2" target="wJKJaym3Btc18to3Iy8r-4" edge="1">
          <mxGeometry relative="1" as="geometry" />
        </mxCell>
        <mxCell id="wJKJaym3Btc18to3Iy8r-2" value="" style="whiteSpace=wrap;html=1;" parent="1" vertex="1">
          <mxGeometry x="210" y="220" width="260" height="270" as="geometry" />
        </mxCell>
        <mxCell id="wJKJaym3Btc18to3Iy8r-3" value="车辆进出状态识别" style="whiteSpace=wrap;html=1;" parent="1" vertex="1">
          <mxGeometry x="210" y="260" width="80" height="40" as="geometry" />
        </mxCell>
        <mxCell id="wJKJaym3Btc18to3Iy8r-4" value="步进电机" style="whiteSpace=wrap;html=1;" parent="1" vertex="1">
          <mxGeometry x="90" y="335" width="80" height="40" as="geometry" />
        </mxCell>
        <mxCell id="wJKJaym3Btc18to3Iy8r-5" value="数码管" style="whiteSpace=wrap;html=1;" parent="1" vertex="1">
          <mxGeometry x="90" y="420" width="80" height="40" as="geometry" />
        </mxCell>
        <mxCell id="wJKJaym3Btc18to3Iy8r-6" value="" style="whiteSpace=wrap;html=1;" parent="1" vertex="1">
          <mxGeometry x="560" y="220" width="200" height="270" as="geometry" />
        </mxCell>
        <mxCell id="wJKJaym3Btc18to3Iy8r-7" value="电机控制" style="whiteSpace=wrap;html=1;" parent="1" vertex="1">
          <mxGeometry x="210" y="340" width="80" height="40" as="geometry" />
        </mxCell>
        <mxCell id="wJKJaym3Btc18to3Iy8r-8" value="UART" style="whiteSpace=wrap;html=1;" parent="1" vertex="1">
          <mxGeometry x="380" y="330" width="90" height="60" as="geometry" />
        </mxCell>
        <mxCell id="wJKJaym3Btc18to3Iy8r-9" value="数码管刷新显示" style="whiteSpace=wrap;html=1;" parent="1" vertex="1">
          <mxGeometry x="210" y="420" width="80" height="40" as="geometry" />
        </mxCell>
        <mxCell id="wJKJaym3Btc18to3Iy8r-12" value="" style="endArrow=classic;html=1;entryX=1;entryY=0.5;entryDx=0;entryDy=0;" parent="1" target="wJKJaym3Btc18to3Iy8r-5" edge="1">
          <mxGeometry width="50" height="50" relative="1" as="geometry">
            <mxPoint x="208" y="440" as="sourcePoint" />
            <mxPoint x="420" y="520" as="targetPoint" />
          </mxGeometry>
        </mxCell>
        <mxCell id="wJKJaym3Btc18to3Iy8r-14" value="" style="endArrow=classic;html=1;exitX=0.5;exitY=1;exitDx=0;exitDy=0;" parent="1" source="wJKJaym3Btc18to3Iy8r-3" target="wJKJaym3Btc18to3Iy8r-7" edge="1">
          <mxGeometry width="50" height="50" relative="1" as="geometry">
            <mxPoint x="390" y="540" as="sourcePoint" />
            <mxPoint x="440" y="490" as="targetPoint" />
          </mxGeometry>
        </mxCell>
        <mxCell id="wJKJaym3Btc18to3Iy8r-16" value="" style="endArrow=classic;html=1;entryX=1;entryY=0.5;entryDx=0;entryDy=0;" parent="1" target="wJKJaym3Btc18to3Iy8r-9" edge="1">
          <mxGeometry width="50" height="50" relative="1" as="geometry">
            <mxPoint x="250" y="320" as="sourcePoint" />
            <mxPoint x="440" y="490" as="targetPoint" />
            <Array as="points">
              <mxPoint x="340" y="320" />
              <mxPoint x="340" y="440" />
            </Array>
          </mxGeometry>
        </mxCell>
        <mxCell id="wJKJaym3Btc18to3Iy8r-17" value="" style="endArrow=classic;startArrow=classic;html=1;exitX=1;exitY=0.5;exitDx=0;exitDy=0;entryX=0;entryY=0.5;entryDx=0;entryDy=0;" parent="1" source="wJKJaym3Btc18to3Iy8r-2" target="wJKJaym3Btc18to3Iy8r-6" edge="1">
          <mxGeometry width="50" height="50" relative="1" as="geometry">
            <mxPoint x="390" y="540" as="sourcePoint" />
            <mxPoint x="440" y="490" as="targetPoint" />
          </mxGeometry>
        </mxCell>
        <mxCell id="wJKJaym3Btc18to3Iy8r-18" value="FPGA" style="text;html=1;align=center;verticalAlign=middle;resizable=0;points=[];autosize=1;strokeColor=none;" parent="1" vertex="1">
          <mxGeometry x="410" y="230" width="50" height="20" as="geometry" />
        </mxCell>
        <mxCell id="wJKJaym3Btc18to3Iy8r-19" value="上位机" style="text;html=1;align=center;verticalAlign=middle;resizable=0;points=[];autosize=1;strokeColor=none;" parent="1" vertex="1">
          <mxGeometry x="700" y="230" width="50" height="20" as="geometry" />
        </mxCell>
        <mxCell id="wJKJaym3Btc18to3Iy8r-20" value="UART" style="whiteSpace=wrap;html=1;" parent="1" vertex="1">
          <mxGeometry x="560" y="330" width="80" height="50" as="geometry" />
        </mxCell>
        <mxCell id="wJKJaym3Btc18to3Iy8r-21" value="数据库" style="whiteSpace=wrap;html=1;" parent="1" vertex="1">
          <mxGeometry x="690" y="295" width="70" height="120" as="geometry" />
        </mxCell>
        <mxCell id="wJKJaym3Btc18to3Iy8r-24" value="" style="endArrow=classic;startArrow=classic;html=1;exitX=0;exitY=0.5;exitDx=0;exitDy=0;entryX=1;entryY=0.5;entryDx=0;entryDy=0;" parent="1" source="wJKJaym3Btc18to3Iy8r-21" target="wJKJaym3Btc18to3Iy8r-20" edge="1">
          <mxGeometry width="50" height="50" relative="1" as="geometry">
            <mxPoint x="390" y="540" as="sourcePoint" />
            <mxPoint x="440" y="490" as="targetPoint" />
          </mxGeometry>
        </mxCell>
        <mxCell id="hNRzAAJFqG2Eg004tOYV-2" value="" style="endArrow=classic;startArrow=classic;html=1;exitX=1;exitY=0.5;exitDx=0;exitDy=0;entryX=0.5;entryY=0;entryDx=0;entryDy=0;" parent="1" source="wJKJaym3Btc18to3Iy8r-3" target="wJKJaym3Btc18to3Iy8r-8" edge="1">
          <mxGeometry width="50" height="50" relative="1" as="geometry">
            <mxPoint x="390" y="550" as="sourcePoint" />
            <mxPoint x="440" y="500" as="targetPoint" />
            <Array as="points">
              <mxPoint x="425" y="280" />
            </Array>
          </mxGeometry>
        </mxCell>
        <mxCell id="tnvyprBFATinbCnKF0pc-1" value="&lt;font style=&quot;font-size: 72px&quot;&gt;系统框图&lt;/font&gt;" style="text;html=1;align=center;verticalAlign=middle;resizable=0;points=[];autosize=1;strokeColor=none;" vertex="1" parent="1">
          <mxGeometry x="264" y="90" width="300" height="30" as="geometry" />
        </mxCell>
      </root>
    </mxGraphModel>
  </diagram>
  <diagram id="p_6IQaVI3_BeOrhrghh_" name="Page-2">
    <mxGraphModel dx="1350" dy="804" grid="1" gridSize="10" guides="1" tooltips="1" connect="1" arrows="1" fold="1" page="1" pageScale="1" pageWidth="827" pageHeight="1169" math="0" shadow="0">
      <root>
        <mxCell id="RS6YnEL1UOEDpsYnXx5M-0" />
        <mxCell id="RS6YnEL1UOEDpsYnXx5M-1" parent="RS6YnEL1UOEDpsYnXx5M-0" />
        <mxCell id="RS6YnEL1UOEDpsYnXx5M-2" value="&amp;nbsp;&amp;nbsp;&amp;nbsp;&amp;nbsp;&amp;nbsp;&amp;nbsp;&amp;nbsp;&amp;nbsp;&amp;nbsp;&amp;nbsp;&amp;nbsp;&amp;nbsp;&amp;nbsp;&amp;nbsp;&amp;nbsp;&amp;nbsp;&amp;nbsp;&amp;nbsp; &lt;font style=&quot;font-size: 48px&quot;&gt;停车位&lt;/font&gt;" style="rounded=0;whiteSpace=wrap;html=1;sketch=0;" parent="RS6YnEL1UOEDpsYnXx5M-1" vertex="1">
          <mxGeometry x="180" y="190" width="390" height="240" as="geometry" />
        </mxCell>
        <mxCell id="RS6YnEL1UOEDpsYnXx5M-3" value="后测距传感器" style="shape=process;whiteSpace=wrap;html=1;backgroundOutline=1;rounded=0;sketch=0;" parent="RS6YnEL1UOEDpsYnXx5M-1" vertex="1">
          <mxGeometry x="260" y="265" width="50" height="90" as="geometry" />
        </mxCell>
        <mxCell id="RS6YnEL1UOEDpsYnXx5M-4" value="前测距传感器" style="shape=process;whiteSpace=wrap;html=1;backgroundOutline=1;rounded=0;sketch=0;" parent="RS6YnEL1UOEDpsYnXx5M-1" vertex="1">
          <mxGeometry x="585" y="262.5" width="50" height="90" as="geometry" />
        </mxCell>
        <mxCell id="RS6YnEL1UOEDpsYnXx5M-5" value="" style="endArrow=none;dashed=1;html=1;exitX=1.004;exitY=0.033;exitDx=0;exitDy=0;exitPerimeter=0;" parent="RS6YnEL1UOEDpsYnXx5M-1" source="RS6YnEL1UOEDpsYnXx5M-2" edge="1">
          <mxGeometry width="50" height="50" relative="1" as="geometry">
            <mxPoint x="20" y="165" as="sourcePoint" />
            <mxPoint x="570" y="425" as="targetPoint" />
          </mxGeometry>
        </mxCell>
        <mxCell id="RS6YnEL1UOEDpsYnXx5M-6" value="可升降栏杆" style="whiteSpace=wrap;html=1;rounded=0;sketch=0;" parent="RS6YnEL1UOEDpsYnXx5M-1" vertex="1">
          <mxGeometry x="560" y="190" width="15" height="235" as="geometry" />
        </mxCell>
        <mxCell id="RS6YnEL1UOEDpsYnXx5M-7" style="edgeStyle=orthogonalEdgeStyle;curved=0;rounded=1;sketch=0;orthogonalLoop=1;jettySize=auto;html=1;" parent="RS6YnEL1UOEDpsYnXx5M-1" source="RS6YnEL1UOEDpsYnXx5M-8" edge="1">
          <mxGeometry relative="1" as="geometry">
            <mxPoint x="359" y="790" as="targetPoint" />
          </mxGeometry>
        </mxCell>
        <mxCell id="RS6YnEL1UOEDpsYnXx5M-8" value="车辆进出状态识别模块" style="whiteSpace=wrap;html=1;aspect=fixed;rounded=0;sketch=0;" parent="RS6YnEL1UOEDpsYnXx5M-1" vertex="1">
          <mxGeometry x="259" y="530" width="200" height="200" as="geometry" />
        </mxCell>
        <mxCell id="RS6YnEL1UOEDpsYnXx5M-9" value="" style="endArrow=classic;html=1;entryX=0.005;entryY=0.14;entryDx=0;entryDy=0;entryPerimeter=0;" parent="RS6YnEL1UOEDpsYnXx5M-1" target="RS6YnEL1UOEDpsYnXx5M-8" edge="1">
          <mxGeometry width="50" height="50" relative="1" as="geometry">
            <mxPoint x="195" y="558" as="sourcePoint" />
            <mxPoint x="385" y="510" as="targetPoint" />
          </mxGeometry>
        </mxCell>
        <mxCell id="RS6YnEL1UOEDpsYnXx5M-10" value="系统时钟" style="text;html=1;align=center;verticalAlign=middle;resizable=0;points=[];autosize=1;strokeColor=none;" parent="RS6YnEL1UOEDpsYnXx5M-1" vertex="1">
          <mxGeometry x="200" y="540" width="60" height="20" as="geometry" />
        </mxCell>
        <mxCell id="RS6YnEL1UOEDpsYnXx5M-11" value="" style="endArrow=classic;html=1;entryX=-0.01;entryY=0.295;entryDx=0;entryDy=0;entryPerimeter=0;" parent="RS6YnEL1UOEDpsYnXx5M-1" target="RS6YnEL1UOEDpsYnXx5M-8" edge="1">
          <mxGeometry width="50" height="50" relative="1" as="geometry">
            <mxPoint x="195" y="589" as="sourcePoint" />
            <mxPoint x="385" y="510" as="targetPoint" />
          </mxGeometry>
        </mxCell>
        <mxCell id="RS6YnEL1UOEDpsYnXx5M-12" value="复位信号" style="text;html=1;align=center;verticalAlign=middle;resizable=0;points=[];autosize=1;strokeColor=none;" parent="RS6YnEL1UOEDpsYnXx5M-1" vertex="1">
          <mxGeometry x="200" y="570" width="60" height="20" as="geometry" />
        </mxCell>
        <mxCell id="RS6YnEL1UOEDpsYnXx5M-13" value="" style="endArrow=classic;html=1;entryX=-0.025;entryY=0.455;entryDx=0;entryDy=0;entryPerimeter=0;" parent="RS6YnEL1UOEDpsYnXx5M-1" target="RS6YnEL1UOEDpsYnXx5M-8" edge="1">
          <mxGeometry width="50" height="50" relative="1" as="geometry">
            <mxPoint x="195" y="621" as="sourcePoint" />
            <mxPoint x="385" y="510" as="targetPoint" />
          </mxGeometry>
        </mxCell>
        <mxCell id="RS6YnEL1UOEDpsYnXx5M-14" value="前传感器返回数据" style="text;html=1;align=center;verticalAlign=middle;resizable=0;points=[];autosize=1;strokeColor=none;" parent="RS6YnEL1UOEDpsYnXx5M-1" vertex="1">
          <mxGeometry x="140" y="600" width="110" height="20" as="geometry" />
        </mxCell>
        <mxCell id="RS6YnEL1UOEDpsYnXx5M-15" value="" style="endArrow=classic;html=1;entryX=-0.01;entryY=0.605;entryDx=0;entryDy=0;entryPerimeter=0;" parent="RS6YnEL1UOEDpsYnXx5M-1" target="RS6YnEL1UOEDpsYnXx5M-8" edge="1">
          <mxGeometry width="50" height="50" relative="1" as="geometry">
            <mxPoint x="195" y="651" as="sourcePoint" />
            <mxPoint x="385" y="510" as="targetPoint" />
          </mxGeometry>
        </mxCell>
        <mxCell id="RS6YnEL1UOEDpsYnXx5M-16" value="后传感器返回数据" style="text;html=1;align=center;verticalAlign=middle;resizable=0;points=[];autosize=1;strokeColor=none;" parent="RS6YnEL1UOEDpsYnXx5M-1" vertex="1">
          <mxGeometry x="140" y="630" width="110" height="20" as="geometry" />
        </mxCell>
        <mxCell id="RS6YnEL1UOEDpsYnXx5M-17" value="成功付费信号" style="text;html=1;align=center;verticalAlign=middle;resizable=0;points=[];autosize=1;strokeColor=none;" parent="RS6YnEL1UOEDpsYnXx5M-1" vertex="1">
          <mxGeometry x="459" y="550" width="90" height="20" as="geometry" />
        </mxCell>
        <mxCell id="RS6YnEL1UOEDpsYnXx5M-18" style="edgeStyle=orthogonalEdgeStyle;curved=0;rounded=1;sketch=0;orthogonalLoop=1;jettySize=auto;html=1;entryX=0.98;entryY=0.2;entryDx=0;entryDy=0;entryPerimeter=0;" parent="RS6YnEL1UOEDpsYnXx5M-1" source="RS6YnEL1UOEDpsYnXx5M-19" target="RS6YnEL1UOEDpsYnXx5M-8" edge="1">
          <mxGeometry relative="1" as="geometry" />
        </mxCell>
        <mxCell id="RS6YnEL1UOEDpsYnXx5M-19" value="UART模块" style="whiteSpace=wrap;html=1;rounded=0;sketch=0;" parent="RS6YnEL1UOEDpsYnXx5M-1" vertex="1">
          <mxGeometry x="549" y="540" width="120" height="60" as="geometry" />
        </mxCell>
        <mxCell id="RS6YnEL1UOEDpsYnXx5M-20" value="车辆此时状态" style="text;html=1;align=center;verticalAlign=middle;resizable=0;points=[];autosize=1;strokeColor=none;" parent="RS6YnEL1UOEDpsYnXx5M-1" vertex="1">
          <mxGeometry x="369" y="750" width="90" height="20" as="geometry" />
        </mxCell>
        <mxCell id="g7SiQAJVfL5_TAa-T3ud-0" value="&lt;font style=&quot;font-size: 72px&quot;&gt;功能1&lt;/font&gt;" style="text;html=1;align=center;verticalAlign=middle;resizable=0;points=[];autosize=1;strokeColor=none;" vertex="1" parent="RS6YnEL1UOEDpsYnXx5M-1">
          <mxGeometry x="290" y="100" width="200" height="30" as="geometry" />
        </mxCell>
      </root>
    </mxGraphModel>
  </diagram>
  <diagram id="Vc9TUZ_8czNKbrm6KXTG" name="Page-3">
    <mxGraphModel dx="1350" dy="804" grid="1" gridSize="10" guides="1" tooltips="1" connect="1" arrows="1" fold="1" page="1" pageScale="1" pageWidth="827" pageHeight="1169" math="0" shadow="0">
      <root>
        <mxCell id="s3ohFkREYACJ5Bm3jnTW-0" />
        <mxCell id="s3ohFkREYACJ5Bm3jnTW-1" parent="s3ohFkREYACJ5Bm3jnTW-0" />
        <mxCell id="s3ohFkREYACJ5Bm3jnTW-3" value="&lt;font style=&quot;font-size: 72px&quot;&gt;功能2&lt;/font&gt;" style="text;html=1;align=center;verticalAlign=middle;resizable=0;points=[];autosize=1;strokeColor=none;" vertex="1" parent="s3ohFkREYACJ5Bm3jnTW-1">
          <mxGeometry x="290" y="120" width="200" height="30" as="geometry" />
        </mxCell>
        <mxCell id="izzl8oGM8k8YTxXmzYI1-2" value="clk" style="text;html=1;align=center;verticalAlign=middle;resizable=0;points=[];autosize=1;strokeColor=none;" vertex="1" parent="s3ohFkREYACJ5Bm3jnTW-1">
          <mxGeometry x="220" y="210" width="30" height="20" as="geometry" />
        </mxCell>
        <mxCell id="izzl8oGM8k8YTxXmzYI1-3" value="" style="endArrow=classic;html=1;" edge="1" parent="s3ohFkREYACJ5Bm3jnTW-1">
          <mxGeometry width="50" height="50" relative="1" as="geometry">
            <mxPoint x="175" y="230" as="sourcePoint" />
            <mxPoint x="805" y="230" as="targetPoint" />
            <Array as="points">
              <mxPoint x="815" y="230" />
              <mxPoint x="805" y="230" />
            </Array>
          </mxGeometry>
        </mxCell>
        <mxCell id="izzl8oGM8k8YTxXmzYI1-4" value="rst_n" style="text;html=1;align=center;verticalAlign=middle;resizable=0;points=[];autosize=1;strokeColor=none;" vertex="1" parent="s3ohFkREYACJ5Bm3jnTW-1">
          <mxGeometry x="220" y="230" width="40" height="20" as="geometry" />
        </mxCell>
        <mxCell id="izzl8oGM8k8YTxXmzYI1-5" value="" style="endArrow=classic;html=1;" edge="1" parent="s3ohFkREYACJ5Bm3jnTW-1">
          <mxGeometry width="50" height="50" relative="1" as="geometry">
            <mxPoint x="175" y="250" as="sourcePoint" />
            <mxPoint x="815" y="250" as="targetPoint" />
            <Array as="points">
              <mxPoint x="275" y="250" />
              <mxPoint x="815" y="250" />
            </Array>
          </mxGeometry>
        </mxCell>
        <mxCell id="izzl8oGM8k8YTxXmzYI1-6" value="" style="shape=flexArrow;endArrow=classic;html=1;" edge="1" parent="s3ohFkREYACJ5Bm3jnTW-1">
          <mxGeometry width="50" height="50" relative="1" as="geometry">
            <mxPoint x="170" y="434" as="sourcePoint" />
            <mxPoint x="313" y="434" as="targetPoint" />
          </mxGeometry>
        </mxCell>
        <mxCell id="izzl8oGM8k8YTxXmzYI1-8" value="&lt;p class=&quot;MsoNormal&quot;&gt;&lt;span style=&quot;font-size: 12.0000pt&quot;&gt;&lt;font face=&quot;宋体&quot;&gt;车辆此时工作状态&lt;/font&gt;&lt;/span&gt;&lt;/p&gt;" style="text;html=1;align=center;verticalAlign=middle;resizable=0;points=[];autosize=1;strokeColor=none;" vertex="1" parent="s3ohFkREYACJ5Bm3jnTW-1">
          <mxGeometry x="175" y="390" width="140" height="50" as="geometry" />
        </mxCell>
        <mxCell id="izzl8oGM8k8YTxXmzYI1-9" value="pwm_generator" style="whiteSpace=wrap;html=1;" vertex="1" parent="s3ohFkREYACJ5Bm3jnTW-1">
          <mxGeometry x="535" y="350" width="120" height="160" as="geometry" />
        </mxCell>
        <mxCell id="izzl8oGM8k8YTxXmzYI1-10" value="step_motor" style="whiteSpace=wrap;html=1;" vertex="1" parent="s3ohFkREYACJ5Bm3jnTW-1">
          <mxGeometry x="545" y="560" width="120" height="160" as="geometry" />
        </mxCell>
        <mxCell id="izzl8oGM8k8YTxXmzYI1-21" value="step_ctrl" style="whiteSpace=wrap;html=1;" vertex="1" parent="s3ohFkREYACJ5Bm3jnTW-1">
          <mxGeometry x="315" y="290" width="120" height="450" as="geometry" />
        </mxCell>
        <mxCell id="izzl8oGM8k8YTxXmzYI1-22" value="" style="endArrow=classic;html=1;" edge="1" parent="s3ohFkREYACJ5Bm3jnTW-1">
          <mxGeometry width="50" height="50" relative="1" as="geometry">
            <mxPoint x="215" y="230" as="sourcePoint" />
            <mxPoint x="315" y="350" as="targetPoint" />
            <Array as="points">
              <mxPoint x="215" y="350" />
            </Array>
          </mxGeometry>
        </mxCell>
        <mxCell id="izzl8oGM8k8YTxXmzYI1-23" value="" style="endArrow=classic;html=1;entryX=-0.014;entryY=0.215;entryDx=0;entryDy=0;entryPerimeter=0;" edge="1" parent="s3ohFkREYACJ5Bm3jnTW-1" target="izzl8oGM8k8YTxXmzYI1-21">
          <mxGeometry width="50" height="50" relative="1" as="geometry">
            <mxPoint x="235" y="250" as="sourcePoint" />
            <mxPoint x="555" y="460" as="targetPoint" />
            <Array as="points">
              <mxPoint x="235" y="387" />
            </Array>
          </mxGeometry>
        </mxCell>
        <mxCell id="izzl8oGM8k8YTxXmzYI1-31" value="" style="endArrow=classic;html=1;" edge="1" parent="s3ohFkREYACJ5Bm3jnTW-1">
          <mxGeometry width="50" height="50" relative="1" as="geometry">
            <mxPoint x="565" y="250" as="sourcePoint" />
            <mxPoint x="565" y="350" as="targetPoint" />
          </mxGeometry>
        </mxCell>
        <mxCell id="izzl8oGM8k8YTxXmzYI1-32" value="" style="endArrow=classic;html=1;" edge="1" parent="s3ohFkREYACJ5Bm3jnTW-1">
          <mxGeometry width="50" height="50" relative="1" as="geometry">
            <mxPoint x="595" y="230" as="sourcePoint" />
            <mxPoint x="595" y="350" as="targetPoint" />
          </mxGeometry>
        </mxCell>
        <mxCell id="izzl8oGM8k8YTxXmzYI1-35" value="" style="endArrow=classic;html=1;entryX=0.5;entryY=0;entryDx=0;entryDy=0;" edge="1" parent="s3ohFkREYACJ5Bm3jnTW-1" target="izzl8oGM8k8YTxXmzYI1-10">
          <mxGeometry width="50" height="50" relative="1" as="geometry">
            <mxPoint x="605" y="513" as="sourcePoint" />
            <mxPoint x="365" y="630" as="targetPoint" />
            <Array as="points">
              <mxPoint x="605" y="540" />
            </Array>
          </mxGeometry>
        </mxCell>
        <mxCell id="izzl8oGM8k8YTxXmzYI1-36" value="PWM" style="text;html=1;align=center;verticalAlign=middle;resizable=0;points=[];autosize=1;strokeColor=none;" vertex="1" parent="s3ohFkREYACJ5Bm3jnTW-1">
          <mxGeometry x="559" y="530" width="40" height="20" as="geometry" />
        </mxCell>
        <mxCell id="izzl8oGM8k8YTxXmzYI1-37" value="" style="endArrow=classic;html=1;entryX=1;entryY=0.75;entryDx=0;entryDy=0;" edge="1" parent="s3ohFkREYACJ5Bm3jnTW-1" target="izzl8oGM8k8YTxXmzYI1-10">
          <mxGeometry width="50" height="50" relative="1" as="geometry">
            <mxPoint x="765" y="230" as="sourcePoint" />
            <mxPoint x="585" y="390" as="targetPoint" />
            <Array as="points">
              <mxPoint x="765" y="680" />
            </Array>
          </mxGeometry>
        </mxCell>
        <mxCell id="izzl8oGM8k8YTxXmzYI1-38" value="" style="endArrow=classic;html=1;entryX=1;entryY=0.5;entryDx=0;entryDy=0;" edge="1" parent="s3ohFkREYACJ5Bm3jnTW-1" target="izzl8oGM8k8YTxXmzYI1-10">
          <mxGeometry width="50" height="50" relative="1" as="geometry">
            <mxPoint x="725" y="250" as="sourcePoint" />
            <mxPoint x="585" y="390" as="targetPoint" />
            <Array as="points">
              <mxPoint x="725" y="640" />
            </Array>
          </mxGeometry>
        </mxCell>
        <mxCell id="izzl8oGM8k8YTxXmzYI1-39" value="dir" style="text;html=1;align=center;verticalAlign=middle;resizable=0;points=[];autosize=1;strokeColor=none;" vertex="1" parent="s3ohFkREYACJ5Bm3jnTW-1">
          <mxGeometry x="465" y="595" width="30" height="20" as="geometry" />
        </mxCell>
        <mxCell id="izzl8oGM8k8YTxXmzYI1-40" value="" style="endArrow=classic;html=1;exitX=1;exitY=0.75;exitDx=0;exitDy=0;entryX=-0.028;entryY=0.427;entryDx=0;entryDy=0;entryPerimeter=0;" edge="1" parent="s3ohFkREYACJ5Bm3jnTW-1" source="izzl8oGM8k8YTxXmzYI1-21" target="izzl8oGM8k8YTxXmzYI1-10">
          <mxGeometry width="50" height="50" relative="1" as="geometry">
            <mxPoint x="535" y="570" as="sourcePoint" />
            <mxPoint x="585" y="520" as="targetPoint" />
          </mxGeometry>
        </mxCell>
        <mxCell id="izzl8oGM8k8YTxXmzYI1-41" value="" style="endArrow=classic;html=1;entryX=0;entryY=0.661;entryDx=0;entryDy=0;entryPerimeter=0;" edge="1" parent="s3ohFkREYACJ5Bm3jnTW-1" target="izzl8oGM8k8YTxXmzYI1-10">
          <mxGeometry width="50" height="50" relative="1" as="geometry">
            <mxPoint x="436" y="666" as="sourcePoint" />
            <mxPoint x="585" y="520" as="targetPoint" />
          </mxGeometry>
        </mxCell>
        <mxCell id="izzl8oGM8k8YTxXmzYI1-42" value="sm_flag" style="text;html=1;align=center;verticalAlign=middle;resizable=0;points=[];autosize=1;strokeColor=none;" vertex="1" parent="s3ohFkREYACJ5Bm3jnTW-1">
          <mxGeometry x="460" y="640" width="60" height="20" as="geometry" />
        </mxCell>
        <mxCell id="izzl8oGM8k8YTxXmzYI1-44" value="m_out[3:0]" style="text;html=1;align=center;verticalAlign=middle;resizable=0;points=[];autosize=1;strokeColor=none;" vertex="1" parent="s3ohFkREYACJ5Bm3jnTW-1">
          <mxGeometry x="465" y="680" width="70" height="20" as="geometry" />
        </mxCell>
        <mxCell id="izzl8oGM8k8YTxXmzYI1-45" value="" style="shape=flexArrow;endArrow=classic;html=1;entryX=1.021;entryY=0.922;entryDx=0;entryDy=0;entryPerimeter=0;exitX=0;exitY=0.891;exitDx=0;exitDy=0;exitPerimeter=0;" edge="1" parent="s3ohFkREYACJ5Bm3jnTW-1" source="izzl8oGM8k8YTxXmzYI1-10" target="izzl8oGM8k8YTxXmzYI1-21">
          <mxGeometry width="50" height="50" relative="1" as="geometry">
            <mxPoint x="535" y="600" as="sourcePoint" />
            <mxPoint x="585" y="550" as="targetPoint" />
          </mxGeometry>
        </mxCell>
        <mxCell id="izzl8oGM8k8YTxXmzYI1-46" value="" style="shape=flexArrow;endArrow=classic;html=1;entryX=1;entryY=0.5;entryDx=0;entryDy=0;" edge="1" parent="s3ohFkREYACJ5Bm3jnTW-1" target="izzl8oGM8k8YTxXmzYI1-49">
          <mxGeometry width="50" height="50" relative="1" as="geometry">
            <mxPoint x="315" y="570" as="sourcePoint" />
            <mxPoint x="185" y="570" as="targetPoint" />
          </mxGeometry>
        </mxCell>
        <mxCell id="izzl8oGM8k8YTxXmzYI1-47" value="M_OUT" style="text;html=1;align=center;verticalAlign=middle;resizable=0;points=[];autosize=1;strokeColor=none;" vertex="1" parent="s3ohFkREYACJ5Bm3jnTW-1">
          <mxGeometry x="220" y="540" width="60" height="20" as="geometry" />
        </mxCell>
        <mxCell id="izzl8oGM8k8YTxXmzYI1-48" value="车辆进出状态识别模块" style="whiteSpace=wrap;html=1;aspect=fixed;" vertex="1" parent="s3ohFkREYACJ5Bm3jnTW-1">
          <mxGeometry x="90" y="390" width="80" height="80" as="geometry" />
        </mxCell>
        <mxCell id="izzl8oGM8k8YTxXmzYI1-49" value="步进电机" style="whiteSpace=wrap;html=1;aspect=fixed;" vertex="1" parent="s3ohFkREYACJ5Bm3jnTW-1">
          <mxGeometry x="100" y="530" width="80" height="80" as="geometry" />
        </mxCell>
      </root>
    </mxGraphModel>
  </diagram>
  <diagram id="K5Zwp5lQMu1VLkPCISfp" name="Page-4">
    <mxGraphModel dx="1350" dy="804" grid="1" gridSize="10" guides="1" tooltips="1" connect="1" arrows="1" fold="1" page="1" pageScale="1" pageWidth="827" pageHeight="1169" math="0" shadow="0">
      <root>
        <mxCell id="xlOU0ptssQJx0X-jKJ3m-0" />
        <mxCell id="xlOU0ptssQJx0X-jKJ3m-1" parent="xlOU0ptssQJx0X-jKJ3m-0" />
        <mxCell id="xlOU0ptssQJx0X-jKJ3m-2" value="&lt;font style=&quot;font-size: 72px&quot;&gt;功能三&lt;/font&gt;" style="text;html=1;align=center;verticalAlign=middle;resizable=0;points=[];autosize=1;strokeColor=none;" vertex="1" parent="xlOU0ptssQJx0X-jKJ3m-1">
          <mxGeometry x="290" y="110" width="230" height="30" as="geometry" />
        </mxCell>
        <mxCell id="muf5UqnXg7KM9Oul-0wY-6" value="串口接收模块" style="whiteSpace=wrap;html=1;" vertex="1" parent="xlOU0ptssQJx0X-jKJ3m-1">
          <mxGeometry x="610" y="270" width="120" height="160" as="geometry" />
        </mxCell>
        <mxCell id="muf5UqnXg7KM9Oul-0wY-7" value="串口发送模块" style="whiteSpace=wrap;html=1;" vertex="1" parent="xlOU0ptssQJx0X-jKJ3m-1">
          <mxGeometry x="610" y="480" width="120" height="160" as="geometry" />
        </mxCell>
        <mxCell id="muf5UqnXg7KM9Oul-0wY-8" value="服务层" style="whiteSpace=wrap;html=1;" vertex="1" parent="xlOU0ptssQJx0X-jKJ3m-1">
          <mxGeometry x="305" y="210" width="120" height="450" as="geometry" />
        </mxCell>
        <mxCell id="muf5UqnXg7KM9Oul-0wY-17" value="是否开始发送数据" style="text;html=1;align=center;verticalAlign=middle;resizable=0;points=[];autosize=1;strokeColor=none;" vertex="1" parent="xlOU0ptssQJx0X-jKJ3m-1">
          <mxGeometry x="450" y="520" width="110" height="20" as="geometry" />
        </mxCell>
        <mxCell id="muf5UqnXg7KM9Oul-0wY-18" value="" style="endArrow=classic;html=1;exitX=1;exitY=0.75;exitDx=0;exitDy=0;entryX=-0.028;entryY=0.427;entryDx=0;entryDy=0;entryPerimeter=0;" edge="1" source="muf5UqnXg7KM9Oul-0wY-8" target="muf5UqnXg7KM9Oul-0wY-7" parent="xlOU0ptssQJx0X-jKJ3m-1">
          <mxGeometry width="50" height="50" relative="1" as="geometry">
            <mxPoint x="525" y="490" as="sourcePoint" />
            <mxPoint x="575" y="440" as="targetPoint" />
          </mxGeometry>
        </mxCell>
        <mxCell id="muf5UqnXg7KM9Oul-0wY-24" value="txd" style="text;html=1;align=center;verticalAlign=middle;resizable=0;points=[];autosize=1;strokeColor=none;" vertex="1" parent="xlOU0ptssQJx0X-jKJ3m-1">
          <mxGeometry x="220" y="470" width="30" height="20" as="geometry" />
        </mxCell>
        <mxCell id="muf5UqnXg7KM9Oul-0wY-35" style="edgeStyle=orthogonalEdgeStyle;rounded=0;orthogonalLoop=1;jettySize=auto;html=1;entryX=-0.033;entryY=0.311;entryDx=0;entryDy=0;entryPerimeter=0;" edge="1" parent="xlOU0ptssQJx0X-jKJ3m-1" source="muf5UqnXg7KM9Oul-0wY-25" target="muf5UqnXg7KM9Oul-0wY-8">
          <mxGeometry relative="1" as="geometry" />
        </mxCell>
        <mxCell id="muf5UqnXg7KM9Oul-0wY-25" value="车辆进出状态识别模块" style="whiteSpace=wrap;html=1;aspect=fixed;" vertex="1" parent="xlOU0ptssQJx0X-jKJ3m-1">
          <mxGeometry x="80" y="310" width="80" height="80" as="geometry" />
        </mxCell>
        <mxCell id="muf5UqnXg7KM9Oul-0wY-27" value="" style="endArrow=classic;html=1;entryX=1.038;entryY=0.838;entryDx=0;entryDy=0;entryPerimeter=0;exitX=0;exitY=0.371;exitDx=0;exitDy=0;exitPerimeter=0;" edge="1" parent="xlOU0ptssQJx0X-jKJ3m-1" source="muf5UqnXg7KM9Oul-0wY-8" target="muf5UqnXg7KM9Oul-0wY-25">
          <mxGeometry width="50" height="50" relative="1" as="geometry">
            <mxPoint x="280" y="377" as="sourcePoint" />
            <mxPoint x="450" y="440" as="targetPoint" />
          </mxGeometry>
        </mxCell>
        <mxCell id="muf5UqnXg7KM9Oul-0wY-28" value="是否成功付费" style="text;html=1;align=center;verticalAlign=middle;resizable=0;points=[];autosize=1;strokeColor=none;" vertex="1" parent="xlOU0ptssQJx0X-jKJ3m-1">
          <mxGeometry x="185" y="380" width="90" height="20" as="geometry" />
        </mxCell>
        <mxCell id="muf5UqnXg7KM9Oul-0wY-29" value="" style="endArrow=classic;html=1;" edge="1" parent="xlOU0ptssQJx0X-jKJ3m-1">
          <mxGeometry width="50" height="50" relative="1" as="geometry">
            <mxPoint x="300" y="490" as="sourcePoint" />
            <mxPoint x="170" y="490" as="targetPoint" />
          </mxGeometry>
        </mxCell>
        <mxCell id="muf5UqnXg7KM9Oul-0wY-30" value="" style="endArrow=classic;html=1;entryX=-0.042;entryY=0.722;entryDx=0;entryDy=0;entryPerimeter=0;" edge="1" parent="xlOU0ptssQJx0X-jKJ3m-1" target="muf5UqnXg7KM9Oul-0wY-8">
          <mxGeometry width="50" height="50" relative="1" as="geometry">
            <mxPoint x="170" y="535" as="sourcePoint" />
            <mxPoint x="235" y="560" as="targetPoint" />
          </mxGeometry>
        </mxCell>
        <mxCell id="muf5UqnXg7KM9Oul-0wY-32" value="rxd" style="text;html=1;align=center;verticalAlign=middle;resizable=0;points=[];autosize=1;strokeColor=none;" vertex="1" parent="xlOU0ptssQJx0X-jKJ3m-1">
          <mxGeometry x="220" y="510" width="30" height="20" as="geometry" />
        </mxCell>
        <mxCell id="muf5UqnXg7KM9Oul-0wY-34" value="" style="endArrow=classic;html=1;entryX=0.042;entryY=0.688;entryDx=0;entryDy=0;entryPerimeter=0;" edge="1" parent="xlOU0ptssQJx0X-jKJ3m-1" target="muf5UqnXg7KM9Oul-0wY-7">
          <mxGeometry width="50" height="50" relative="1" as="geometry">
            <mxPoint x="430" y="590" as="sourcePoint" />
            <mxPoint x="450" y="440" as="targetPoint" />
          </mxGeometry>
        </mxCell>
        <mxCell id="muf5UqnXg7KM9Oul-0wY-36" value="车辆此时工作状态" style="text;html=1;align=center;verticalAlign=middle;resizable=0;points=[];autosize=1;strokeColor=none;" vertex="1" parent="xlOU0ptssQJx0X-jKJ3m-1">
          <mxGeometry x="180" y="320" width="110" height="20" as="geometry" />
        </mxCell>
        <mxCell id="muf5UqnXg7KM9Oul-0wY-37" value="发送给上位机的数据" style="text;html=1;align=center;verticalAlign=middle;resizable=0;points=[];autosize=1;strokeColor=none;" vertex="1" parent="xlOU0ptssQJx0X-jKJ3m-1">
          <mxGeometry x="450" y="610" width="120" height="20" as="geometry" />
        </mxCell>
        <mxCell id="muf5UqnXg7KM9Oul-0wY-38" value="" style="endArrow=classic;html=1;exitX=0;exitY=0.25;exitDx=0;exitDy=0;entryX=0.958;entryY=0.222;entryDx=0;entryDy=0;entryPerimeter=0;" edge="1" parent="xlOU0ptssQJx0X-jKJ3m-1" source="muf5UqnXg7KM9Oul-0wY-6" target="muf5UqnXg7KM9Oul-0wY-8">
          <mxGeometry width="50" height="50" relative="1" as="geometry">
            <mxPoint x="400" y="520" as="sourcePoint" />
            <mxPoint x="450" y="470" as="targetPoint" />
          </mxGeometry>
        </mxCell>
        <mxCell id="muf5UqnXg7KM9Oul-0wY-39" value="数据接收完成" style="text;html=1;align=center;verticalAlign=middle;resizable=0;points=[];autosize=1;strokeColor=none;" vertex="1" parent="xlOU0ptssQJx0X-jKJ3m-1">
          <mxGeometry x="480" y="280" width="90" height="20" as="geometry" />
        </mxCell>
        <mxCell id="muf5UqnXg7KM9Oul-0wY-40" value="接收的一字节数据" style="text;html=1;align=center;verticalAlign=middle;resizable=0;points=[];autosize=1;strokeColor=none;" vertex="1" parent="xlOU0ptssQJx0X-jKJ3m-1">
          <mxGeometry x="470" y="345" width="110" height="20" as="geometry" />
        </mxCell>
        <mxCell id="muf5UqnXg7KM9Oul-0wY-41" value="" style="endArrow=classic;html=1;entryX=1.025;entryY=0.38;entryDx=0;entryDy=0;entryPerimeter=0;exitX=-0.033;exitY=0.694;exitDx=0;exitDy=0;exitPerimeter=0;" edge="1" parent="xlOU0ptssQJx0X-jKJ3m-1" source="muf5UqnXg7KM9Oul-0wY-6" target="muf5UqnXg7KM9Oul-0wY-8">
          <mxGeometry width="50" height="50" relative="1" as="geometry">
            <mxPoint x="400" y="520" as="sourcePoint" />
            <mxPoint x="490" y="410" as="targetPoint" />
          </mxGeometry>
        </mxCell>
        <mxCell id="muf5UqnXg7KM9Oul-0wY-42" value="上位机" style="whiteSpace=wrap;html=1;aspect=fixed;" vertex="1" parent="xlOU0ptssQJx0X-jKJ3m-1">
          <mxGeometry x="90" y="470" width="80" height="80" as="geometry" />
        </mxCell>
      </root>
    </mxGraphModel>
  </diagram>
</mxfile>
